# Blender 5.0.1
# www.blender.org
mtllib bloob.mtl
o meat
v 0.000000 2.700000 0.000000
v 0.000000 2.407107 -0.707107
v 0.000000 1.700000 -1.000000
v 0.000000 0.992893 -0.707107
v 0.000000 0.700000 0.000000
v 0.500000 2.407107 -0.500000
v 0.707107 1.700000 -0.707107
v 0.500000 0.992893 -0.500000
v 0.707107 2.407107 0.000000
v 1.000000 1.700000 0.000000
v 0.707107 0.992893 0.000000
v 0.500000 2.407107 0.500000
v 0.707107 1.700000 0.707107
v 0.500000 0.992893 0.500000
v 0.000000 2.407107 0.707107
v 0.000000 1.700000 1.000000
v 0.000000 0.992893 0.707107
v 1.817793 1.964239 -0.270113
v 1.929678 1.582242 -0.381998
v 1.817793 1.200244 -0.270113
v 1.547680 1.042016 -0.000000
v 1.547680 1.200244 -0.381998
v 1.547680 1.582242 -0.540226
v 1.547680 1.964239 -0.381998
v 1.547680 2.122468 -0.000000
v 1.929678 1.964239 -0.000000
v 2.087906 1.582242 -0.000000
v 1.929678 1.200244 -0.000000
v 1.817793 1.964239 0.270113
v 1.929678 1.582242 0.381997
v 1.817793 1.200244 0.270113
v 1.547680 1.964239 0.381997
v 1.547680 1.582242 0.540226
v 1.547680 1.200244 0.381997
v 1.277567 1.964239 0.270113
v 1.165683 1.582242 0.381997
v 1.277567 1.200244 0.270113
v 1.165683 1.964239 -0.000000
v 1.007454 1.582242 -0.000000
v 1.165683 1.200244 -0.000000
v 1.277567 1.964239 -0.270113
v 1.165683 1.582242 -0.381998
v 1.277567 1.200244 -0.270113
v 1.086449 0.770195 -0.279741
v 1.086449 0.023259 -0.279741
v 1.016329 0.695924 0.439042
v 1.269278 0.023259 0.367602
v 0.125119 0.785165 -0.008232
v 0.125119 0.023259 -0.008232
v 0.494777 0.695924 0.586344
v 0.307948 0.023259 0.639110
v 0.769979 0.695924 0.508619
v 0.769979 0.023259 0.508619
v 0.587150 0.023259 -0.138724
v 0.587150 0.773543 -0.138724
v 1.441177 0.019045 0.976246
v 1.088115 0.368443 -0.273843
v 0.479847 0.019045 1.247755
v 0.125119 0.368443 -0.008232
v 0.578430 0.368443 -0.169599
v 1.137242 0.019045 1.808983
v -0.500000 2.407107 -0.500000
v -0.707107 1.700000 -0.707107
v -0.500000 0.992893 -0.500000
v -0.707107 2.407107 0.000000
v -1.000000 1.700000 0.000000
v -0.707107 0.992893 0.000000
v -0.500000 2.407107 0.500000
v -0.707107 1.700000 0.707107
v -0.500000 0.992893 0.500000
v -1.817793 1.964239 -0.270113
v -1.929678 1.582242 -0.381998
v -1.817793 1.200244 -0.270113
v -1.547680 1.042016 -0.000000
v -1.547680 1.200244 -0.381998
v -1.547680 1.582242 -0.540226
v -1.547680 1.964239 -0.381998
v -1.547680 2.122468 -0.000000
v -1.929678 1.964239 -0.000000
v -2.087906 1.582242 -0.000000
v -1.929678 1.200244 -0.000000
v -1.817793 1.964239 0.270113
v -1.929678 1.582242 0.381997
v -1.817793 1.200244 0.270113
v -1.547680 1.964239 0.381997
v -1.547680 1.582242 0.540226
v -1.547680 1.200244 0.381997
v -1.277567 1.964239 0.270113
v -1.165683 1.582242 0.381997
v -1.277567 1.200244 0.270113
v -1.165683 1.964239 -0.000000
v -1.007454 1.582242 -0.000000
v -1.165683 1.200244 -0.000000
v -1.277567 1.964239 -0.270113
v -1.165683 1.582242 -0.381998
v -1.277567 1.200244 -0.270113
v -1.086449 0.770195 -0.279741
v -1.086449 0.023259 -0.279741
v -1.016329 0.695924 0.439042
v -1.269278 0.023259 0.367602
v -0.125119 0.785165 -0.008232
v -0.125119 0.023259 -0.008232
v -0.494777 0.695924 0.586344
v -0.307948 0.023259 0.639110
v -0.769979 0.695924 0.508619
v -0.769979 0.023259 0.508619
v -0.587150 0.023259 -0.138724
v -0.587150 0.773543 -0.138724
v -1.441177 0.019045 0.976246
v -1.088115 0.368443 -0.273843
v -0.479847 0.019045 1.247755
v -0.125119 0.368443 -0.008232
v -0.578430 0.368443 -0.169599
v -1.137242 0.019045 1.808983
vn -0.0000 1.0000 -0.0000
vn -0.0000 0.6630 -0.7486
vn -0.0000 -0.0000 -1.0000
vn -0.0000 -0.6630 -0.7486
vn -0.0000 -1.0000 -0.0000
vn 0.5294 0.6630 -0.5294
vn 0.7071 -0.0000 -0.7071
vn 0.5294 -0.6630 -0.5294
vn 0.7486 0.6630 -0.0000
vn 1.0000 -0.0000 -0.0000
vn 0.7486 -0.6630 -0.0000
vn 0.5294 0.6630 0.5294
vn 0.7071 -0.0000 0.7071
vn 0.5294 -0.6630 0.5294
vn -0.0000 0.6630 0.7486
vn -0.0000 -0.0000 1.0000
vn -0.0000 -0.6630 0.7486
vn -0.5294 0.6630 0.5294
vn -0.7071 -0.0000 0.7071
vn -0.5294 -0.6630 0.5294
vn -0.7486 0.6630 -0.0000
vn -1.0000 -0.0000 -0.0000
vn -0.7486 -0.6630 -0.0000
vn -0.5294 0.6630 -0.5294
vn -0.7071 -0.0000 -0.7071
vn -0.5294 -0.6630 -0.5294
vn 0.4114 0.6916 -0.5937
vn 0.4047 -0.5869 -0.7013
vn 0.6019 0.7875 0.1322
vn 0.6789 -0.7084 -0.1933
vn -0.6683 0.6822 -0.2967
vn -0.7121 -0.5887 -0.3825
vn -0.4933 0.7545 0.4329
vn -0.6796 -0.7084 0.1904
vn 0.0884 0.9483 0.3048
vn -0.0005 -1.0000 -0.0021
vn -0.1869 -0.7220 -0.6662
vn -0.1694 0.7575 -0.6305
vn 0.8895 -0.3808 0.2526
vn 0.5358 0.1464 -0.8316
vn -0.6263 -0.3945 0.6724
vn -0.8909 0.1069 -0.4415
vn -0.2700 -0.0032 -0.9628
vn 0.2753 -0.1039 0.9557
vn -0.4114 0.6916 -0.5937
vn -0.4047 -0.5869 -0.7013
vn -0.6019 0.7875 0.1322
vn -0.6789 -0.7084 -0.1933
vn 0.6683 0.6822 -0.2967
vn 0.7121 -0.5887 -0.3825
vn 0.4933 0.7545 0.4329
vn 0.6796 -0.7084 0.1904
vn -0.0884 0.9483 0.3048
vn 0.0005 -1.0000 -0.0021
vn 0.1869 -0.7220 -0.6662
vn 0.1694 0.7575 -0.6305
vn -0.8895 -0.3808 0.2526
vn -0.5358 0.1464 -0.8316
vn 0.6263 -0.3945 0.6724
vn 0.8909 0.1069 -0.4415
vn 0.2700 -0.0032 -0.9628
vn -0.2753 -0.1039 0.9557
vt 0.561868 0.579755
vt 0.560606 0.464539
vt 0.490279 0.466606
vt 0.512139 0.581217
vt 0.559345 0.349322
vt 0.558822 0.301598
vt 0.509616 0.350784
vt 0.562390 0.627480
vt 0.461149 0.467462
vt 0.491541 0.581822
vt 0.489018 0.351389
vt 0.258047 0.385753
vt 0.286932 0.500000
vt 0.258047 0.500000
vt 0.237622 0.385753
vt 0.258047 0.614247
vt 0.188312 0.661569
vt 0.237622 0.614247
vt 0.188312 0.338431
vt 0.188312 0.500000
vt 0.188312 0.385753
vt 0.188312 0.614247
vt 0.306810 0.856337
vt 0.290776 0.919753
vt 0.279439 0.919753
vt 0.290776 0.856337
vt 0.252068 0.946021
vt 0.252068 0.919753
vt 0.290776 0.792921
vt 0.279439 0.792921
vt 0.252068 0.856337
vt 0.252068 0.792921
vt 0.252068 0.766653
vt 0.290776 0.856337
vt 0.252068 0.856337
vt 0.224697 0.919753
vt 0.213359 0.856337
vt 0.224697 0.792921
vt 0.213359 0.919753
vt 0.197325 0.856337
vt 0.213359 0.792921
vt 0.213359 0.856337
vt 0.505385 0.778378
vt 0.555979 0.778378
vt 0.574506 0.778378
vt 0.523911 0.778378
vt 0.716858 0.977011
vt 0.666827 0.972219
vt 0.692485 0.860730
vt 0.722918 0.863279
vt 0.724796 0.631601
vt 0.670339 0.746192
vt 0.556148 0.835683
vt 0.555979 0.902379
vt 0.548874 0.890049
vt 0.591925 0.777679
vt 0.504501 0.835683
vt 0.505385 0.902935
vt 0.494511 0.777679
vt 0.496024 0.890049
vt 0.458566 0.904864
vt 0.458566 0.835683
vt 0.768762 0.752309
vt 0.750461 0.865585
vt 0.772057 0.982689
vt 0.458566 0.778378
vt 0.477092 0.778378
vt 0.561126 0.777679
vt 0.611596 0.578294
vt 0.630933 0.462472
vt 0.609073 0.347861
vt 0.632195 0.577689
vt 0.660063 0.461616
vt 0.629672 0.347256
vt 0.118577 0.385753
vt 0.139002 0.385753
vt 0.118577 0.500000
vt 0.089691 0.500000
vt 0.118577 0.614247
vt 0.139002 0.614247
vt 0.195355 0.859883
vt 0.211388 0.859883
vt 0.222726 0.923299
vt 0.211388 0.923299
vt 0.250097 0.923299
vt 0.250097 0.949567
vt 0.211388 0.796467
vt 0.222726 0.796467
vt 0.250097 0.796467
vt 0.250097 0.859883
vt 0.250097 0.770199
vt 0.211388 0.859883
vt 0.250097 0.859883
vt 0.288805 0.859883
vt 0.277468 0.923299
vt 0.277468 0.796467
vt 0.304839 0.859883
vt 0.288805 0.923299
vt 0.288805 0.796467
vt 0.288805 0.859883
vt 0.505438 0.774832
vt 0.486912 0.774832
vt 0.436317 0.774832
vt 0.454843 0.774832
vt 0.835425 0.617764
vt 0.834462 0.503141
vt 0.865612 0.503039
vt 0.890562 0.614553
vt 0.837116 0.347377
vt 0.881412 0.442842
vt 0.868568 0.495533
vt 0.837418 0.495679
vt 0.454674 0.832137
vt 0.418898 0.774133
vt 0.461948 0.886503
vt 0.454843 0.898833
vt 0.506322 0.832137
vt 0.505438 0.899388
vt 0.516311 0.774133
vt 0.552257 0.832137
vt 0.552257 0.901318
vt 0.514798 0.886503
vt 0.789621 0.441228
vt 0.808832 0.495814
vt 0.773075 0.621060
vt 0.805876 0.503234
vt 0.552257 0.774832
vt 0.533730 0.774832
vt 0.449696 0.774133
s 1
usemtl bloob.001
f 4/1/4 3/2/3 7/3/7 8/4/8
f 2/5/2 1/6/1 6/7/6
f 5/8/5 4/1/4 8/4/8
f 3/2/3 2/5/2 6/7/6 7/3/7
f 8/4/8 7/3/7 10/9/10 11/10/11
f 6/7/6 1/6/1 9/11/9
f 5/8/5 8/4/8 11/10/11
f 7/3/7 6/7/6 9/11/9 10/9/10
f 11/12/11 10/13/10 13/14/13 14/15/14
f 9/16/9 1/17/1 12/18/12
f 5/19/5 11/12/11 14/15/14
f 10/13/10 9/16/9 12/18/12 13/14/13
f 14/15/14 13/14/13 16/20/16 17/21/17
f 12/18/12 1/17/1 15/22/15
f 5/19/5 14/15/14 17/21/17
f 13/14/13 12/18/12 15/22/15 16/20/16
f 27/23/10 26/24/9 29/25/12 30/26/13
f 29/25/12 25/27/1 32/28/15
f 28/29/11 27/23/10 30/26/13 31/30/14
f 31/30/14 30/26/13 33/31/16 34/32/17
f 26/24/9 25/27/1 29/25/12
f 21/33/5 31/30/14 34/32/17
f 21/33/5 28/29/11 31/30/14
f 30/26/13 29/25/12 32/28/15 33/31/16
f 18/25/6 25/27/1 26/24/9
f 21/33/5 20/30/8 28/29/11
f 19/34/7 18/25/6 26/24/9 27/23/10
f 20/30/8 19/34/7 27/23/10 28/29/11
f 22/32/4 23/35/3 19/34/7 20/30/8
f 24/28/2 25/27/1 18/25/6
f 23/35/3 24/28/2 18/25/6 19/34/7
f 21/33/5 22/32/4 20/30/8
f 33/31/16 32/28/15 35/36/18 36/37/19
f 32/28/15 25/27/1 35/36/18
f 34/32/17 33/31/16 36/37/19 37/38/20
f 21/33/5 34/32/17 37/38/20
f 36/37/19 35/36/18 38/39/21 39/40/22
f 35/36/18 25/27/1 38/39/21
f 37/38/20 36/37/19 39/40/22 40/41/23
f 21/33/5 37/38/20 40/41/23
f 39/40/22 38/39/21 41/36/24 42/42/25
f 38/39/21 25/27/1 41/36/24
f 40/41/23 39/40/22 42/42/25 43/38/26
f 21/33/5 40/41/23 43/38/26
f 42/42/25 41/36/24 24/28/2 23/35/3
f 41/36/24 25/27/1 24/28/2
f 43/38/26 42/42/25 23/35/3 22/32/4
f 21/33/5 43/38/26 22/32/4
f 54/43/37 45/44/28 47/45/30 53/46/36
f 55/47/38 48/48/31 50/49/33 52/50/35
f 61/51/44 52/50/35 50/49/33 58/52/41
f 57/53/40 44/54/27 46/55/29 56/56/39
f 60/57/43 55/58/38 44/54/27 57/53/40
f 58/59/41 50/60/33 48/61/31 59/62/42
f 59/62/42 48/61/31 55/58/38 60/57/43
f 56/63/39 46/64/29 52/50/35 61/51/44
f 44/65/27 55/47/38 52/50/35 46/64/29
f 49/66/32 54/43/37 53/46/36 51/67/34
f 47/45/30 56/56/39 61/68/44 53/46/36
f 49/66/32 59/62/42 60/57/43 54/43/37
f 51/67/34 58/59/41 59/62/42 49/66/32
f 54/43/37 60/57/43 57/53/40 45/44/28
f 45/44/28 57/53/40 56/56/39 47/45/30
f 53/46/36 61/68/44 58/59/41 51/67/34
f 4/1/4 64/69/26 63/70/25 3/2/3
f 2/5/2 62/71/24 1/6/1
f 5/8/5 64/69/26 4/1/4
f 3/2/3 63/70/25 62/71/24 2/5/2
f 64/69/26 67/72/23 66/73/22 63/70/25
f 62/71/24 65/74/21 1/6/1
f 5/8/5 67/72/23 64/69/26
f 63/70/25 66/73/22 65/74/21 62/71/24
f 67/75/23 70/76/20 69/77/19 66/78/22
f 65/79/21 68/80/18 1/17/1
f 5/19/5 70/76/20 67/75/23
f 66/78/22 69/77/19 68/80/18 65/79/21
f 70/76/20 17/21/17 16/20/16 69/77/19
f 68/80/18 15/22/15 1/17/1
f 5/19/5 17/21/17 70/76/20
f 69/77/19 16/20/16 15/22/15 68/80/18
f 80/81/22 83/82/19 82/83/18 79/84/21
f 82/83/18 85/85/15 78/86/1
f 81/87/23 84/88/20 83/82/19 80/81/22
f 84/88/20 87/89/17 86/90/16 83/82/19
f 79/84/21 82/83/18 78/86/1
f 74/91/5 87/89/17 84/88/20
f 74/91/5 84/88/20 81/87/23
f 83/82/19 86/90/16 85/85/15 82/83/18
f 71/83/24 79/84/21 78/86/1
f 74/91/5 81/87/23 73/88/26
f 72/92/25 80/81/22 79/84/21 71/83/24
f 73/88/26 81/87/23 80/81/22 72/92/25
f 75/89/4 73/88/26 72/92/25 76/93/3
f 77/85/2 71/83/24 78/86/1
f 76/93/3 72/92/25 71/83/24 77/85/2
f 74/91/5 73/88/26 75/89/4
f 86/90/16 89/94/13 88/95/12 85/85/15
f 85/85/15 88/95/12 78/86/1
f 87/89/17 90/96/14 89/94/13 86/90/16
f 74/91/5 90/96/14 87/89/17
f 89/94/13 92/97/10 91/98/9 88/95/12
f 88/95/12 91/98/9 78/86/1
f 90/96/14 93/99/11 92/97/10 89/94/13
f 74/91/5 93/99/11 90/96/14
f 92/97/10 95/100/7 94/95/6 91/98/9
f 91/98/9 94/95/6 78/86/1
f 93/99/11 96/96/8 95/100/7 92/97/10
f 74/91/5 96/96/8 93/99/11
f 95/100/7 76/93/3 77/85/2 94/95/6
f 94/95/6 77/85/2 78/86/1
f 96/96/8 75/89/4 76/93/3 95/100/7
f 74/91/5 75/89/4 96/96/8
f 107/101/55 106/102/54 100/103/48 98/104/46
f 108/105/56 105/106/53 103/107/51 101/108/49
f 114/109/62 111/110/59 103/111/51 105/112/53
f 110/113/58 109/114/57 99/115/47 97/116/45
f 113/117/61 110/113/58 97/116/45 108/118/56
f 111/119/59 112/120/60 101/121/49 103/122/51
f 112/120/60 113/117/61 108/118/56 101/121/49
f 109/123/57 114/109/62 105/112/53 99/124/47
f 97/125/45 99/126/47 105/106/53 108/105/56
f 102/127/50 104/128/52 106/102/54 107/101/55
f 100/103/48 106/102/54 114/129/62 109/114/57
f 102/127/50 107/101/55 113/117/61 112/120/60
f 104/128/52 102/127/50 112/120/60 111/119/59
f 107/101/55 98/104/46 110/113/58 113/117/61
f 98/104/46 100/103/48 109/114/57 110/113/58
f 106/102/54 104/128/52 111/119/59 114/129/62
