# Blender 5.0.1
# www.blender.org
mtllib GUN.mtl
o cube
v 0.334085 -0.279397 0.802711
v 0.334085 0.033084 0.903109
v 0.334085 -0.314569 -1.078237
v 0.334085 0.050530 -1.004202
v -0.328870 -0.279397 0.802711
v -0.328870 0.033084 0.903109
v -0.328870 -0.314569 -1.078237
v -0.328870 0.050530 -1.004202
v 0.334085 -0.311579 0.603202
v 0.334085 -0.098750 0.598140
v -0.328870 -0.311579 0.603202
v -0.328870 -0.098750 0.598140
v 0.552757 0.750316 1.042050
v -0.547541 0.750316 1.042050
v 0.552757 0.664962 0.800559
v -0.547541 0.664962 0.800559
v 0.334085 -0.177149 -0.164339
v -0.328870 -0.336921 -0.260381
v 0.334085 -0.336921 -0.260381
v -0.328870 -0.177149 -0.164339
v -0.326484 0.065947 -0.246240
v -0.326484 0.725974 -0.242994
v -0.326484 0.035203 -0.540218
v -0.326484 0.709064 -0.707863
v 0.331700 0.065947 -0.246240
v 0.331700 0.725974 -0.242994
v 0.331700 0.035203 -0.540218
v 0.331700 0.709064 -0.707863
v -0.326484 0.393205 -0.350081
v -0.326484 0.361680 -0.605910
v 0.331700 0.361680 -0.605910
v 0.331700 0.393205 -0.350081
v -0.326484 -0.150439 -0.003386
v -0.326484 -0.146711 -0.228420
v 0.331700 -0.150439 -0.003386
v 0.331700 -0.146711 -0.228420
v -0.427022 -2.219764 -1.443743
v -0.427022 0.649294 -0.774516
v -0.427022 -2.209216 -3.429013
v -0.427022 1.052168 -2.663672
v 0.486037 -2.219764 -1.443743
v 0.486037 0.649294 -0.774516
v 0.486037 -2.209216 -3.429013
v 0.486037 1.052168 -2.663672
v -0.427022 -0.227152 -1.055649
v -0.427022 -0.216603 -2.953498
v 0.486037 -0.216603 -2.953498
v 0.486037 -0.227152 -1.055649
v -0.427022 1.932447 -0.758377
v -0.427022 1.903364 -2.890037
v 0.486037 1.932447 -0.758377
v 0.486037 1.903364 -2.890037
v -0.666565 -2.211828 -2.937282
v -0.666565 -2.217067 -1.951329
v -0.666565 1.079287 -2.242070
v -0.666565 1.140704 -1.340257
v 0.725579 -2.217067 -1.951329
v 0.725579 -2.211828 -2.937282
v 0.725579 1.140704 -1.340257
v 0.725579 1.079287 -2.242070
v 0.725579 -0.219094 -2.505358
v 0.725579 -0.224576 -1.518946
v -0.666565 -0.224576 -1.518946
v -0.666565 -0.219094 -2.505358
v -0.666565 1.941183 -1.329937
v -0.666565 1.954916 -2.096832
v 0.725579 1.941183 -1.329937
v 0.725579 1.954916 -2.096832
v -0.427022 1.260401 -2.990426
v 0.486037 1.260401 -2.990426
v -0.427022 1.377845 -3.381968
v 0.486037 1.377845 -3.381968
v -0.427022 2.695230 -2.688970
v 0.486037 2.695230 -2.688970
v -0.666565 2.660527 -2.070607
v 0.725579 2.660527 -2.070607
v 0.486037 0.648200 1.289993
v -0.427022 0.648200 1.289993
v 0.486037 1.888464 1.298571
v -0.427022 1.888464 1.298571
v -0.666564 1.096721 1.298571
v -0.666564 1.897200 1.298571
v 0.725579 1.897200 1.298571
v 0.725579 1.096721 1.298571
v 0.486037 0.605312 3.871891
v -0.427022 0.605312 3.871891
v 0.486037 1.888464 3.871891
v -0.427022 1.888464 3.871891
v -0.666564 1.096721 3.871891
v -0.666564 1.897200 3.871891
v 0.725579 1.897200 3.871891
v 0.725579 1.096721 3.871891
v -0.666565 1.945868 -1.329937
v -0.666565 1.959601 -2.096832
v 0.725579 1.945868 -1.329937
v 0.725579 1.959601 -2.096832
v -0.666565 2.665212 -2.070607
v 0.725579 2.665212 -2.070607
v -0.666564 1.901886 3.871891
v 0.725579 1.901886 3.871891
v -0.666565 2.391053 -1.329937
v 0.725579 2.391053 -1.329937
v -0.666564 2.347070 3.871891
v 0.725579 2.347070 3.871891
v -0.436839 2.794207 -1.329937
v 0.495853 2.794207 -1.329937
v -0.436839 2.750224 3.871891
v 0.495853 2.750224 3.871891
v 0.065434 2.653264 3.854807
v 0.348095 2.536181 3.854807
v 0.465178 2.253520 3.854807
v 0.348095 1.970858 3.854807
v 0.065434 1.853776 3.854807
v -0.217228 1.970859 3.854807
v -0.334310 2.253520 3.854807
v -0.217227 2.536181 3.854807
v 0.348095 2.536181 4.110943
v 0.065434 2.653263 4.110944
v 0.465178 2.253520 4.110943
v 0.348095 1.970858 4.110943
v 0.065434 1.853776 4.110943
v -0.217228 1.970858 4.110943
v -0.334310 2.253520 4.110943
v -0.217227 2.536181 4.110944
vn 1.0000 -0.0000 -0.0000
vn -0.0000 0.1987 -0.9801
vn -1.0000 -0.0000 -0.0000
vn -0.9710 -0.2221 0.0883
vn -0.9975 -0.0659 0.0262
vn -0.0000 -0.3059 0.9521
vn -0.0000 -0.2436 0.9699
vn -0.0000 -0.9955 0.0945
vn -0.0000 -0.9872 0.1592
vn -0.0000 0.2562 -0.9666
vn -0.0000 0.9967 0.0810
vn -0.0000 0.9948 -0.1023
vn -0.0000 -1.0000 0.0010
vn 0.9975 -0.0659 0.0262
vn 0.9710 -0.2221 0.0883
vn -0.0000 0.9428 -0.3332
vn -0.9439 -0.3069 0.1220
vn 0.9439 -0.3069 0.1220
vn -0.0000 -0.1902 0.9817
vn -0.0000 -0.9996 -0.0273
vn -0.0000 0.9652 0.2616
vn -0.0000 -0.2397 -0.9709
vn -0.0000 -0.2816 -0.9595
vn -0.0000 -0.3063 0.9519
vn -0.0000 0.9993 -0.0364
vn -0.0000 0.3024 0.9532
vn -0.0000 -0.1973 -0.9804
vn -0.0000 -0.9631 -0.2690
vn -0.0000 -0.9999 -0.0166
vn -0.0000 0.7466 0.6652
vn -0.0000 -0.8637 -0.5039
vn -0.0000 0.2274 -0.9738
vn -0.0000 0.2227 -0.9749
vn -0.0000 -0.2487 0.9686
vn -0.0000 -0.3054 0.9522
vn -0.0000 -0.1912 0.9816
vn -0.0000 0.2321 -0.9727
vn 0.8899 -0.4562 -0.0044
vn 0.9957 -0.0682 0.0630
vn 0.9719 -0.2352 -0.0021
vn 0.8904 -0.4551 -0.0041
vn 0.9675 0.0106 -0.2528
vn 0.9330 0.0376 -0.3580
vn -0.9957 -0.0682 0.0630
vn -0.9752 0.0125 -0.2208
vn -0.9773 0.0178 -0.2111
vn 0.0018 0.9999 0.0170
vn -0.0018 0.9999 0.0170
vn -0.0000 0.9998 0.0179
vn -0.9691 0.0531 -0.2408
vn -0.9633 0.0596 -0.2616
vn -0.9794 -0.0407 0.1978
vn -0.9747 -0.0450 0.2191
vn 0.9747 -0.0450 0.2191
vn 0.9794 -0.0407 0.1978
vn 0.9633 0.0596 -0.2616
vn 0.9691 0.0531 -0.2408
vn 0.9773 0.0178 -0.2111
vn 0.9752 0.0125 -0.2208
vn -0.0000 -1.0000 -0.0053
vn -0.8933 -0.0907 0.4403
vn -0.9075 -0.0845 0.4114
vn -0.8793 0.1033 -0.4648
vn -0.8864 0.1028 -0.4513
vn -0.9330 0.0376 -0.3580
vn -0.9675 0.0106 -0.2528
vn -0.9178 -0.0798 0.3890
vn -0.0000 -1.0000 -0.0005
vn -0.0000 -1.0000 -0.0086
vn 0.8864 0.1028 -0.4513
vn 0.8793 0.1033 -0.4648
vn 0.9075 -0.0845 0.4114
vn 0.8933 -0.0907 0.4403
vn 0.0061 0.9998 0.0183
vn 0.0253 0.9996 0.0094
vn 0.0126 0.9999 0.0100
vn 0.9178 -0.0798 0.3890
vn -0.0000 -0.0371 0.9993
vn -0.0061 0.9998 0.0183
vn -0.0000 -0.9092 -0.4163
vn -0.0000 -0.9578 -0.2873
vn -0.0000 -0.8433 -0.5374
vn -0.0000 0.4799 -0.8773
vn -0.0000 0.6834 -0.7301
vn -0.0000 0.9984 0.0560
vn 0.9456 0.0488 -0.3215
vn -0.9456 0.0488 -0.3215
vn -0.0000 0.2461 -0.9692
vn 0.0364 0.9993 -0.0000
vn 0.0182 0.9998 -0.0000
vn -0.0253 0.9996 0.0094
vn -0.0126 0.9999 0.0100
vn -0.0182 0.9998 -0.0000
vn -0.0364 0.9993 -0.0000
vn -0.9719 -0.2352 -0.0021
vn -0.8899 -0.4562 -0.0044
vn -0.8904 -0.4551 -0.0041
vn -0.0000 -0.0000 1.0000
vn 0.9724 -0.2335 -0.0019
vn 0.8910 -0.4541 -0.0038
vn -0.8910 -0.4541 -0.0038
vn -0.9724 -0.2335 -0.0019
vn -0.0000 0.0371 -0.9993
vn -0.9670 0.2548 0.0022
vn -0.9727 0.2288 0.0384
vn 0.9727 0.2288 0.0384
vn 0.9670 0.2548 0.0022
vn -0.8688 0.4951 0.0042
vn -0.8658 0.4933 0.0837
vn 0.8658 0.4933 0.0837
vn 0.8688 0.4951 0.0042
vn -0.0000 1.0000 0.0085
vn -0.0000 0.9960 -0.0897
vn 0.8546 0.4870 0.1803
vn -0.8546 0.4870 0.1803
vn -0.0000 -0.0000 -1.0000
vn -0.9239 0.3827 -0.0000
vn -0.3827 -0.9239 -0.0000
vn 0.9239 -0.3827 -0.0000
vn 0.3827 0.9239 -0.0000
vn -0.3827 0.9239 -0.0000
vn -0.9239 -0.3827 -0.0000
vn 0.3827 -0.9239 -0.0000
vn 0.9239 0.3827 -0.0000
vn -0.0000 0.9852 -0.1716
vn -0.0000 -1.0000 -0.0085
vn -0.0000 -0.9999 -0.0132
vn -0.0000 -0.9998 -0.0179
vt 0.464068 0.292123
vt 0.528389 0.293881
vt 0.522566 0.322594
vt 0.456515 0.304688
vt 0.623280 0.792345
vt 0.623280 0.843687
vt 0.594635 0.843687
vt 0.594635 0.792345
vt 0.396151 0.294116
vt 0.380460 0.296647
vt 0.372564 0.321222
vt 0.396549 0.310854
vt 0.351100 0.149638
vt 0.396899 0.149638
vt 0.396899 0.171225
vt 0.351100 0.171225
vt 0.399239 0.134130
vt 0.399239 0.148798
vt 0.350499 0.148798
vt 0.350499 0.134130
vt 0.371099 0.717597
vt 0.358385 0.705828
vt 0.422357 0.705828
vt 0.409643 0.717597
vt 0.371099 0.761928
vt 0.409643 0.761928
vt 0.399239 0.070641
vt 0.350499 0.070641
vt 0.539760 0.670206
vt 0.558549 0.670206
vt 0.558549 0.755417
vt 0.539760 0.755417
vt 0.361637 0.377630
vt 0.380629 0.370917
vt 0.412005 0.220773
vt 0.335994 0.220773
vt 0.399239 0.010513
vt 0.350499 0.010513
vt 0.371099 0.810758
vt 0.409643 0.810758
vt 0.471122 0.349544
vt 0.462700 0.375715
vt 0.499261 0.374386
vt 0.491242 0.347065
vt 0.606008 0.075200
vt 0.606008 0.120795
vt 0.519620 0.120795
vt 0.519620 0.075200
vt 0.501962 0.149041
vt 0.501962 0.184545
vt 0.431739 0.184545
vt 0.431739 0.149041
vt 0.486076 0.321389
vt 0.462956 0.323807
vt 0.443856 0.306789
vt 0.461554 0.307082
vt 0.558620 0.843317
vt 0.558620 0.792346
vt 0.594635 0.792346
vt 0.594635 0.843317
vt 0.501962 0.114125
vt 0.431739 0.114125
vt 0.606008 0.032350
vt 0.519620 0.032350
vt 0.431614 0.063126
vt 0.501837 0.063126
vt 0.501837 0.087135
vt 0.431614 0.087135
vt 0.431739 0.091039
vt 0.501962 0.091039
vt 0.519620 0.008474
vt 0.606008 0.008474
vt 0.088697 0.190850
vt 0.088697 0.290634
vt 0.016888 0.290634
vt 0.016888 0.190850
vt 0.123058 0.727306
vt 0.123058 0.842341
vt 0.003218 0.842341
vt 0.003218 0.727306
vt 0.123058 0.465773
vt 0.003218 0.465773
vt 0.088697 0.034139
vt 0.016888 0.034139
vt 0.504503 0.369685
vt 0.548996 0.408332
vt 0.341463 0.404873
vt 0.342137 0.369599
vt 0.670880 0.468312
vt 0.653077 0.401369
vt 0.678775 0.417746
vt 0.709568 0.426982
vt 0.548184 0.471287
vt 0.608497 0.472367
vt 0.619920 0.403502
vt 0.761037 0.490653
vt 0.868849 0.490653
vt 0.868849 0.550024
vt 0.761037 0.550024
vt 0.640626 0.301390
vt 0.674595 0.144669
vt 0.597054 0.144257
vt 0.563049 0.300958
vt 0.977168 0.613346
vt 0.901135 0.613346
vt 0.901135 0.559498
vt 0.977168 0.559498
vt 0.557135 0.144045
vt 0.526612 0.300756
vt 0.914218 0.532642
vt 0.964085 0.532642
vt 0.675871 0.301586
vt 0.713268 0.144875
vt 0.964085 0.641068
vt 0.914218 0.641068
vt 0.914218 0.677618
vt 0.964085 0.677618
vt 0.964085 0.790372
vt 0.914218 0.790372
vt 0.779588 0.446403
vt 0.761037 0.287158
vt 0.779588 0.287167
vt 0.735314 0.670206
vt 0.735314 0.778018
vt 0.680671 0.778018
vt 0.680671 0.670206
vt 0.850298 0.446403
vt 0.016888 0.307011
vt 0.088697 0.307011
vt 0.088697 0.316247
vt 0.016888 0.316247
vt 0.088697 0.357577
vt 0.016888 0.357577
vt 0.965853 0.475817
vt 0.906013 0.475817
vt 0.890314 0.435290
vt 0.981552 0.435290
vt 0.655067 0.530590
vt 0.606435 0.527860
vt 0.088697 0.419854
vt 0.016888 0.419854
vt 0.761037 0.087891
vt 0.779588 0.087900
vt 0.868849 0.287158
vt 0.850298 0.287167
vt 0.850298 0.087900
vt 0.868849 0.087891
vt 0.964085 0.931382
vt 0.914218 0.931382
vt 0.341463 0.467828
vt 0.147732 0.157114
vt 0.224202 0.157114
vt 0.224202 0.264581
vt 0.147732 0.264581
vt 0.127670 0.198271
vt 0.127670 0.265312
vt 0.244264 0.198271
vt 0.244264 0.265312
vt 0.139081 0.467828
vt 0.139081 0.404873
vt 0.139081 0.366226
vt 0.680671 0.815188
vt 0.626041 0.815188
vt 0.626041 0.707376
vt 0.680671 0.707376
vt 0.139081 0.468196
vt 0.139081 0.503208
vt 0.548184 0.506667
vt 0.548184 0.471655
vt 0.317853 0.610777
vt 0.317853 0.645789
vt 0.208367 0.645789
vt 0.208367 0.610777
vt 0.139081 0.534914
vt 0.548184 0.538374
vt 0.299786 0.677495
vt 0.226434 0.677495
vt 0.608497 0.472735
vt 0.606435 0.528229
vt 0.905369 0.045829
vt 0.966496 0.045829
vt 0.966496 0.386748
vt 0.905369 0.386748
vt 0.117449 0.922549
vt 0.125123 0.904024
vt 0.117449 0.885499
vt 0.098924 0.877826
vt 0.080399 0.885499
vt 0.072726 0.904024
vt 0.080399 0.922549
vt 0.098924 0.930223
vt 0.098924 0.877826
vt 0.117449 0.885499
vt 0.503521 0.588121
vt 0.503521 0.628202
vt 0.485200 0.628202
vt 0.485200 0.588121
vt 0.450803 0.887465
vt 0.450803 0.928473
vt 0.405548 0.928473
vt 0.405548 0.887465
vt 0.514803 0.887465
vt 0.514803 0.928473
vt 0.496058 0.928473
vt 0.496058 0.887465
vt 0.440968 0.588121
vt 0.440968 0.628202
vt 0.396736 0.628202
vt 0.396736 0.588121
vt 0.386803 0.928473
vt 0.386803 0.887465
vt 0.378414 0.628202
vt 0.378414 0.588121
vt 0.890314 0.435290
vt 0.981552 0.435290
vt 0.779424 0.890007
vt 0.779424 0.653258
vt 0.842784 0.653258
vt 0.842784 0.890007
vt 0.779424 0.618355
vt 0.842784 0.618355
s 1
usemtl Material
f 19/1/1 3/2/1 4/3/1 17/4/1
f 3/5/2 7/6/2 8/7/2 4/8/2
f 11/9/3 5/10/3 6/11/4 12/12/5
f 5/13/6 1/14/6 2/15/7 6/16/7
f 9/17/8 1/18/9 5/19/9 11/20/8
f 12/21/10 16/22/10 15/23/10 10/24/10
f 20/25/11 12/21/12 10/24/12 17/26/11
f 19/27/13 9/17/8 11/20/8 18/28/13
f 18/1/3 11/9/3 12/12/5 20/4/3
f 1/10/1 9/9/1 10/12/14 2/11/15
f 16/29/16 14/30/16 13/31/16 15/32/16
f 6/11/4 14/33/17 16/34/17 12/12/5
f 10/12/14 15/34/18 13/33/18 2/11/15
f 2/15/7 13/35/19 14/36/19 6/16/7
f 7/2/3 18/1/3 20/4/3 8/3/3
f 3/37/20 19/27/13 18/28/13 7/38/20
f 8/39/21 20/25/11 17/26/11 4/40/21
f 9/9/1 19/1/1 17/4/1 10/12/14
f 29/41/3 22/42/3 24/43/3 30/44/3
f 30/45/22 24/46/23 28/47/23 31/48/22
f 31/44/1 28/43/1 26/42/1 32/41/1
f 32/49/24 26/50/24 22/51/24 29/52/24
f 27/53/1 25/54/1 35/55/1 36/56/1
f 28/57/25 24/58/25 22/59/25 26/60/25
f 25/61/26 32/49/26 29/52/26 21/62/26
f 27/53/1 31/44/1 32/41/1 25/54/1
f 23/63/27 30/45/22 31/48/22 27/64/27
f 21/54/3 29/41/3 30/44/3 23/53/3
f 34/65/28 36/66/28 35/67/29 33/68/29
f 25/61/30 21/62/30 33/69/30 35/70/30
f 23/63/31 27/64/31 36/71/28 34/72/28
f 21/54/3 23/53/3 34/56/3 33/55/3
f 46/73/32 40/74/33 44/75/33 47/76/32
f 48/77/34 42/78/35 38/79/35 45/80/34
f 41/81/36 48/77/34 45/80/34 37/82/36
f 39/83/37 46/73/32 47/76/32 43/84/37
f 42/85/38 59/86/39 84/87/40 77/88/41
f 52/89/42 44/90/43 70/91/1 72/92/1
f 56/86/44 65/93/3 66/94/45 55/95/46
f 65/96/47 67/97/48 68/98/49 66/99/49
f 64/100/50 53/101/51 54/102/52 63/103/53
f 62/103/54 57/102/55 58/101/56 61/100/57
f 60/95/58 68/94/59 67/93/1 59/86/39
f 57/104/60 54/105/60 53/106/60 58/107/60
f 59/86/39 62/103/54 61/100/57 60/95/58
f 55/95/46 64/100/50 63/103/53 56/86/44
f 37/108/61 45/109/62 63/103/53 54/102/52
f 39/110/60 43/111/60 58/107/60 53/106/60
f 53/101/51 64/100/50 46/112/63 39/113/64
f 54/105/60 57/104/60 41/114/60 37/115/60
f 40/90/65 55/95/46 66/94/45 50/89/66
f 45/109/62 38/85/67 56/86/44 63/103/53
f 64/100/50 55/95/46 40/90/65 46/112/63
f 38/116/68 42/117/68 77/118/69 78/119/69
f 43/113/70 47/112/71 61/100/57 58/101/56
f 57/102/55 62/103/54 48/109/72 41/108/73
f 49/120/74 65/96/47 82/121/75 80/122/76
f 47/112/71 44/90/43 60/95/58 61/100/57
f 62/103/54 59/86/39 42/85/77 48/109/72
f 60/95/58 44/90/43 52/89/42 68/94/59
f 66/123/78 68/124/78 76/125/78 75/126/78
f 67/97/48 65/96/47 49/120/74 51/127/79
f 70/128/80 69/129/80 71/130/81 72/131/81
f 44/75/82 40/74/82 69/129/80 70/128/80
f 50/132/83 52/133/83 72/131/84 71/130/84
f 40/90/65 50/89/66 71/92/3 69/91/3
f 74/134/85 73/135/85 75/136/85 76/137/85
f 68/94/59 52/89/42 74/138/86 76/139/86
f 50/89/66 66/94/45 75/139/87 73/138/87
f 52/133/83 50/132/83 73/140/88 74/141/88
f 80/122/76 82/121/75 90/142/89 88/143/90
f 83/144/91 79/145/92 87/146/93 91/147/94
f 78/119/69 77/118/69 85/148/29 86/149/29
f 65/93/3 56/86/44 81/87/95 82/150/3
f 56/86/44 38/85/96 78/88/97 81/87/95
f 51/127/79 49/120/74 80/122/76 79/145/92
f 59/86/39 67/93/1 83/150/1 84/87/40
f 67/97/48 51/127/79 79/145/92 83/144/91
f 86/151/98 85/152/98 87/153/98 88/154/98
f 89/155/98 86/151/98 88/154/98 90/156/98
f 85/152/98 92/157/98 91/158/98 87/153/98
f 84/87/40 83/150/1 91/159/1 92/160/99
f 79/145/92 80/122/76 88/143/90 87/146/93
f 77/88/41 84/87/40 92/160/99 85/161/100
f 81/87/95 78/88/97 86/161/101 89/160/102
f 82/150/3 81/87/95 89/160/102 90/159/3
f 85/152/98 92/157/98 89/155/98 86/151/98
f 94/162/103 97/163/103 98/164/103 96/165/103
f 99/166/3 103/167/104 101/168/105 93/169/3
f 95/169/1 102/168/106 104/167/107 100/166/1
f 100/170/98 104/171/98 103/172/98 99/173/98
f 103/167/104 107/174/108 105/175/109 101/168/105
f 102/168/106 106/175/110 108/174/111 104/167/107
f 104/171/98 108/176/98 107/177/98 103/172/98
f 95/169/1 96/178/1 98/179/1 102/168/106
f 93/169/3 101/168/105 97/179/3 94/178/3
f 107/180/112 108/181/112 106/182/113 105/183/113
f 98/179/114 106/175/110 102/168/106
f 97/179/115 101/168/105 105/175/109
f 110/184/116 111/185/116 112/186/116 113/187/116 114/188/116 115/189/116 116/190/116 109/191/116
f 117/184/98 118/191/98 124/190/98 123/189/98 122/188/98 121/192/98 120/193/98 119/185/98
f 115/194/117 123/195/117 124/196/117 116/197/117
f 113/198/118 121/199/118 122/200/118 114/201/118
f 111/202/119 119/203/119 120/204/119 112/205/119
f 109/206/120 118/207/120 117/208/120 110/209/120
f 116/197/121 124/196/121 118/207/121 109/206/121
f 114/201/122 122/200/122 123/210/122 115/211/122
f 112/205/123 120/204/123 121/199/123 113/198/123
f 110/209/124 117/208/124 119/212/124 111/213/124
f 97/214/125 105/183/113 106/182/113 98/215/125
f 99/216/126 93/217/127 95/218/127 100/219/126
f 94/220/128 96/221/128 95/218/127 93/217/127
