# Blender 5.0.1
# www.blender.org
mtllib GUN.mtl
o cube
v 0.334085 -0.279397 0.802711
v 0.334085 0.033084 0.903109
v 0.334085 -0.314569 -1.078237
v 0.334085 0.050530 -1.004202
v -0.328870 -0.279397 0.802711
v -0.328870 0.033084 0.903109
v -0.328870 -0.314569 -1.078237
v -0.328870 0.050530 -1.004202
v 0.334085 -0.311579 0.603202
v 0.334085 -0.098750 0.598140
v -0.328870 -0.311579 0.603202
v -0.328870 -0.098750 0.598140
v 0.552757 0.750316 1.042050
v -0.547541 0.750316 1.042050
v 0.552757 0.664962 0.800559
v -0.547541 0.664962 0.800559
v 0.334085 -0.177149 -0.164339
v -0.328870 -0.336921 -0.260381
v 0.334085 -0.336921 -0.260381
v -0.328870 -0.177149 -0.164339
v -0.326484 0.065947 -0.246240
v -0.326484 0.725974 -0.242994
v -0.326484 0.035203 -0.540218
v -0.326484 0.709064 -0.707863
v 0.331700 0.065947 -0.246240
v 0.331700 0.725974 -0.242994
v 0.331700 0.035203 -0.540218
v 0.331700 0.709064 -0.707863
v -0.326484 0.393205 -0.350081
v -0.326484 0.361680 -0.605910
v 0.331700 0.361680 -0.605910
v 0.331700 0.393205 -0.350081
v -0.326484 -0.150439 -0.003386
v -0.326484 -0.146711 -0.228420
v 0.331700 -0.150439 -0.003386
v 0.331700 -0.146711 -0.228420
v -0.427022 -2.219764 -1.443743
v -0.427022 0.649294 -0.774516
v -0.427022 -2.209216 -3.429013
v -0.427022 1.052168 -2.663672
v 0.486037 -2.219764 -1.443743
v 0.486037 0.649294 -0.774516
v 0.486037 -2.209216 -3.429013
v 0.486037 1.052168 -2.663672
v -0.427022 -0.227152 -1.055649
v -0.427022 -0.216603 -2.953498
v 0.486037 -0.216603 -2.953498
v 0.486037 -0.227152 -1.055649
v -0.427022 1.932447 -0.758377
v -0.427022 1.903364 -2.890037
v 0.486037 1.932447 -0.758377
v 0.486037 1.903364 -2.890037
v -0.666565 -2.211828 -2.937282
v -0.666565 -2.217067 -1.951329
v -0.666565 1.079287 -2.242070
v -0.666565 1.140704 -1.340257
v 0.725579 -2.217067 -1.951329
v 0.725579 -2.211828 -2.937282
v 0.725579 1.140704 -1.340257
v 0.725579 1.079287 -2.242070
v 0.725579 -0.219094 -2.505358
v 0.725579 -0.224576 -1.518946
v -0.666565 -0.224576 -1.518946
v -0.666565 -0.219094 -2.505358
v -0.666565 1.941183 -1.329937
v -0.666565 1.954916 -2.096832
v 0.725579 1.941183 -1.329937
v 0.725579 1.954916 -2.096832
v -0.427022 1.260401 -2.990426
v 0.486037 1.260401 -2.990426
v -0.427022 1.377845 -3.381968
v 0.486037 1.377845 -3.381968
v -0.427022 2.695230 -2.688970
v 0.486037 2.695230 -2.688970
v -0.666565 2.660527 -2.070607
v 0.725579 2.660527 -2.070607
v 0.486037 0.648200 1.289993
v -0.427022 0.648200 1.289993
v 0.486037 1.888464 1.298571
v -0.427022 1.888464 1.298571
v -0.666564 1.096721 1.298571
v -0.666564 1.897200 1.298571
v 0.725579 1.897200 1.298571
v 0.725579 1.096721 1.298571
v 0.486037 0.605312 3.871891
v -0.427022 0.605312 3.871891
v 0.486037 1.888464 3.871891
v -0.427022 1.888464 3.871891
v -0.666564 1.096721 3.871891
v -0.666564 1.897200 3.871891
v 0.725579 1.897200 3.871891
v 0.725579 1.096721 3.871891
v -0.666565 1.945868 -1.329937
v -0.666565 1.959601 -2.096832
v 0.725579 1.945868 -1.329937
v 0.725579 1.959601 -2.096832
v -0.666565 2.665212 -2.070607
v 0.725579 2.665212 -2.070607
v -0.666564 1.901886 3.871891
v 0.725579 1.901886 3.871891
v -0.666565 2.391053 -1.329937
v 0.725579 2.391053 -1.329937
v -0.666564 2.347070 3.871891
v 0.725579 2.347070 3.871891
v -0.436839 2.794207 -1.329937
v 0.495853 2.794207 -1.329937
v -0.436839 2.750224 3.871891
v 0.495853 2.750224 3.871891
v 0.065434 2.653264 3.854807
v 0.348095 2.536181 3.854807
v 0.465178 2.253520 3.854807
v 0.348095 1.970858 3.854807
v 0.065434 1.853776 3.854807
v -0.217228 1.970859 3.854807
v -0.334310 2.253520 3.854807
v -0.217227 2.536181 3.854807
v 0.348095 2.536181 4.110943
v 0.065434 2.653263 4.110944
v 0.465178 2.253520 4.110943
v 0.348095 1.970858 4.110943
v 0.065434 1.853776 4.110943
v -0.217228 1.970858 4.110943
v -0.334310 2.253520 4.110943
v -0.217227 2.536181 4.110944
vn 1.0000 -0.0000 -0.0000
vn -0.0000 0.1987 -0.9801
vn -1.0000 -0.0000 -0.0000
vn -0.9710 -0.2221 0.0883
vn -0.9975 -0.0659 0.0262
vn -0.0000 -0.3059 0.9521
vn -0.0000 -0.2436 0.9699
vn -0.0000 -0.9955 0.0945
vn -0.0000 -0.9872 0.1592
vn -0.0000 0.2562 -0.9666
vn -0.0000 0.9967 0.0810
vn -0.0000 0.9948 -0.1023
vn -0.0000 -1.0000 0.0010
vn 0.9975 -0.0659 0.0262
vn 0.9710 -0.2221 0.0883
vn -0.0000 0.9428 -0.3332
vn -0.9439 -0.3069 0.1220
vn 0.9439 -0.3069 0.1220
vn -0.0000 -0.1902 0.9817
vn -0.0000 -0.9996 -0.0273
vn -0.0000 0.9652 0.2616
vn -0.0000 -0.2397 -0.9709
vn -0.0000 -0.2816 -0.9595
vn -0.0000 -0.3063 0.9519
vn -0.0000 0.9993 -0.0364
vn -0.0000 0.3024 0.9532
vn -0.0000 -0.1973 -0.9804
vn -0.0000 -0.9631 -0.2690
vn -0.0000 -0.9999 -0.0166
vn -0.0000 0.7466 0.6652
vn -0.0000 -0.8637 -0.5039
vn -0.0000 0.2274 -0.9738
vn -0.0000 0.2227 -0.9749
vn -0.0000 -0.2487 0.9686
vn -0.0000 -0.3054 0.9522
vn -0.0000 -0.1912 0.9816
vn -0.0000 0.2321 -0.9727
vn 0.8899 -0.4562 -0.0044
vn 0.9957 -0.0682 0.0630
vn 0.9719 -0.2352 -0.0021
vn 0.8904 -0.4551 -0.0041
vn 0.9675 0.0106 -0.2528
vn 0.9330 0.0376 -0.3580
vn -0.9957 -0.0682 0.0630
vn -0.9752 0.0125 -0.2208
vn -0.9773 0.0178 -0.2111
vn 0.0018 0.9999 0.0170
vn -0.0018 0.9999 0.0170
vn -0.0000 0.9998 0.0179
vn -0.9691 0.0531 -0.2408
vn -0.9633 0.0596 -0.2616
vn -0.9794 -0.0407 0.1978
vn -0.9747 -0.0450 0.2191
vn 0.9747 -0.0450 0.2191
vn 0.9794 -0.0407 0.1978
vn 0.9633 0.0596 -0.2616
vn 0.9691 0.0531 -0.2408
vn 0.9773 0.0178 -0.2111
vn 0.9752 0.0125 -0.2208
vn -0.0000 -1.0000 -0.0053
vn -0.8933 -0.0907 0.4403
vn -0.9075 -0.0845 0.4114
vn -0.8793 0.1033 -0.4648
vn -0.8864 0.1028 -0.4513
vn -0.9330 0.0376 -0.3580
vn -0.9675 0.0106 -0.2528
vn -0.9178 -0.0798 0.3890
vn -0.0000 -1.0000 -0.0005
vn -0.0000 -1.0000 -0.0086
vn 0.8864 0.1028 -0.4513
vn 0.8793 0.1033 -0.4648
vn 0.9075 -0.0845 0.4114
vn 0.8933 -0.0907 0.4403
vn 0.0061 0.9998 0.0183
vn 0.0253 0.9996 0.0094
vn 0.0126 0.9999 0.0100
vn 0.9178 -0.0798 0.3890
vn -0.0000 -0.0371 0.9993
vn -0.0061 0.9998 0.0183
vn -0.0000 -0.9092 -0.4163
vn -0.0000 -0.9578 -0.2873
vn -0.0000 -0.8433 -0.5374
vn -0.0000 0.4799 -0.8773
vn -0.0000 0.6834 -0.7301
vn -0.0000 0.9984 0.0560
vn 0.9456 0.0488 -0.3215
vn -0.9456 0.0488 -0.3215
vn -0.0000 0.2461 -0.9692
vn 0.0364 0.9993 -0.0000
vn 0.0182 0.9998 -0.0000
vn -0.0253 0.9996 0.0094
vn -0.0126 0.9999 0.0100
vn -0.0182 0.9998 -0.0000
vn -0.0364 0.9993 -0.0000
vn -0.9719 -0.2352 -0.0021
vn -0.8899 -0.4562 -0.0044
vn -0.8904 -0.4551 -0.0041
vn -0.0000 -0.0000 1.0000
vn 0.9724 -0.2335 -0.0019
vn 0.8910 -0.4541 -0.0038
vn -0.8910 -0.4541 -0.0038
vn -0.9724 -0.2335 -0.0019
vn -0.0000 0.0371 -0.9993
vn -0.9670 0.2548 0.0022
vn -0.9727 0.2288 0.0384
vn 0.9727 0.2288 0.0384
vn 0.9670 0.2548 0.0022
vn -0.8688 0.4951 0.0042
vn -0.8658 0.4933 0.0837
vn 0.8658 0.4933 0.0837
vn 0.8688 0.4951 0.0042
vn -0.0000 1.0000 0.0085
vn -0.0000 0.9960 -0.0897
vn 0.8546 0.4870 0.1803
vn -0.8546 0.4870 0.1803
vn -0.0000 -0.0000 -1.0000
vn -0.9239 0.3827 -0.0000
vn -0.3827 -0.9239 -0.0000
vn 0.9239 -0.3827 -0.0000
vn 0.3827 0.9239 -0.0000
vn -0.3827 0.9239 -0.0000
vn -0.9239 -0.3827 -0.0000
vn 0.3827 -0.9239 -0.0000
vn 0.9239 0.3827 -0.0000
vn -0.0000 0.9852 -0.1716
vn -0.0000 -1.0000 -0.0085
vn -0.0000 -0.9999 -0.0132
vn -0.0000 -0.9998 -0.0179
vt 0.366972 0.685395
vt 0.344840 0.744752
vt 0.319942 0.730181
vt 0.357671 0.674356
vt 0.623280 0.792345
vt 0.623280 0.843687
vt 0.594635 0.843687
vt 0.594635 0.792345
vt 0.392038 0.621493
vt 0.389397 0.606070
vt 0.409779 0.590886
vt 0.407761 0.616531
vt 0.539760 0.687141
vt 0.539760 0.738482
vt 0.515047 0.738482
vt 0.515047 0.687141
vt 0.680671 0.692174
vt 0.680671 0.707376
vt 0.629330 0.707376
vt 0.629330 0.692174
vt 0.380160 0.813028
vt 0.319942 0.829963
vt 0.319942 0.744752
vt 0.380160 0.761687
vt 0.558620 0.727547
vt 0.558620 0.668422
vt 0.609961 0.668422
vt 0.609961 0.727547
vt 0.680671 0.625667
vt 0.629330 0.625667
vt 0.411822 0.685395
vt 0.421123 0.674356
vt 0.389397 0.606070
vt 0.386756 0.621492
vt 0.371034 0.616531
vt 0.369015 0.590886
vt 0.539760 0.670206
vt 0.558549 0.670206
vt 0.558549 0.755417
vt 0.539760 0.755417
vt 0.458853 0.562394
vt 0.458650 0.582225
vt 0.320145 0.582225
vt 0.319942 0.562394
vt 0.458853 0.755417
vt 0.458853 0.670206
vt 0.433955 0.744752
vt 0.458853 0.730181
vt 0.680671 0.562394
vt 0.629330 0.562394
vt 0.558620 0.792346
vt 0.609961 0.792346
vt 0.695463 0.808921
vt 0.680671 0.786250
vt 0.715735 0.778018
vt 0.715214 0.806050
vt 0.275408 0.838811
vt 0.249232 0.838811
vt 0.249232 0.787839
vt 0.275408 0.787839
vt 0.517654 0.783449
vt 0.517133 0.755417
vt 0.552198 0.763648
vt 0.537405 0.786319
vt 0.189267 0.812742
vt 0.189267 0.786423
vt 0.240239 0.786423
vt 0.240239 0.812742
vt 0.515894 0.809179
vt 0.538478 0.812887
vt 0.552198 0.834011
vt 0.535467 0.829136
vt 0.558620 0.843317
vt 0.594635 0.792346
vt 0.594635 0.843317
vt 0.189267 0.837413
vt 0.240239 0.837413
vt 0.300197 0.838811
vt 0.300197 0.787839
vt 0.694390 0.835488
vt 0.716974 0.831780
vt 0.734369 0.778018
vt 0.734369 0.828990
vt 0.716974 0.828990
vt 0.716974 0.778018
vt 0.735314 0.721178
vt 0.735314 0.670206
vt 0.753894 0.670206
vt 0.753894 0.721178
vt 0.759565 0.778018
vt 0.759565 0.828990
vt 0.697402 0.851738
vt 0.680671 0.856613
vt 0.070710 0.662145
vt 0.070710 0.562394
vt 0.141420 0.562394
vt 0.141420 0.662145
vt 0.249232 0.631708
vt 0.249232 0.562394
vt 0.319942 0.562394
vt 0.319942 0.631708
vt 0.319942 0.787839
vt 0.070710 0.818931
vt 0.141420 0.818931
vt 0.224017 0.202615
vt 0.261626 0.158668
vt 0.260874 0.363017
vt 0.226009 0.362455
vt 0.318998 0.037553
vt 0.253314 0.055943
vt 0.269110 0.030433
vt 0.277810 0.000000
vt 0.499411 0.158668
vt 0.437416 0.158655
vt 0.437124 0.099266
vt 0.505074 0.088910
vt 0.761037 0.402763
vt 0.868849 0.402763
vt 0.868849 0.462134
vt 0.761037 0.462134
vt 0.605879 0.069845
vt 0.760620 0.038427
vt 0.760034 0.114767
vt 0.605311 0.146220
vt 0.155726 0.146220
vt 0.001003 0.114767
vt 0.000417 0.038427
vt 0.155159 0.069844
vt 0.255963 0.088910
vt 0.323913 0.099266
vt 0.323621 0.158655
vt 0.249232 0.676513
vt 0.141420 0.676513
vt 0.141420 0.600370
vt 0.249232 0.600370
vt 0.759857 0.153715
vt 0.605170 0.181739
vt 0.159971 0.562394
vt 0.230681 0.562394
vt 0.606261 0.034792
vt 0.761037 0.000000
vt 0.230681 0.715713
vt 0.159971 0.715713
vt 0.507723 0.055943
vt 0.442039 0.037553
vt 0.537020 0.202615
vt 0.000000 0.562394
vt 0.070710 0.562394
vt 0.070710 0.721771
vt 0.000000 0.721771
vt 0.000000 0.000000
vt 0.154776 0.034792
vt 0.155867 0.181739
vt 0.001180 0.153715
vt 0.779588 0.358513
vt 0.761037 0.199268
vt 0.779588 0.199277
vt 0.735314 0.670206
vt 0.735314 0.778018
vt 0.680671 0.778018
vt 0.680671 0.670206
vt 0.850298 0.358513
vt 0.215781 0.786423
vt 0.215781 0.715713
vt 0.246733 0.715713
vt 0.246733 0.786423
vt 0.189267 0.786423
vt 0.189267 0.715713
vt 0.558620 0.624777
vt 0.629330 0.624777
vt 0.629330 0.668422
vt 0.558620 0.668422
vt 0.483227 0.000000
vt 0.491927 0.030433
vt 0.141420 0.804974
vt 0.141420 0.734264
vt 0.189267 0.823524
vt 0.380519 0.052316
vt 0.378578 0.100580
vt 0.382459 0.100580
vt 0.380519 0.052316
vt 0.558620 0.562394
vt 0.629330 0.562394
vt 0.761037 0.000000
vt 0.779588 0.000009
vt 0.868849 0.199268
vt 0.850298 0.199277
vt 0.850298 0.000009
vt 0.868849 0.000000
vt 0.070710 0.921346
vt 0.000000 0.921346
vt 0.500163 0.363017
vt 0.438179 0.362204
vt 0.535028 0.362455
vt 0.322858 0.362204
vt 0.558620 0.580945
vt 0.558620 0.651655
vt 0.459527 0.651655
vt 0.459527 0.580945
vt 0.520670 0.562394
vt 0.458853 0.562394
vt 0.520670 0.670206
vt 0.458853 0.670206
vt 0.325446 0.561436
vt 0.263461 0.562249
vt 0.225284 0.562394
vt 0.535753 0.562394
vt 0.497576 0.562249
vt 0.435591 0.561436
vt 0.680671 0.815188
vt 0.626041 0.815188
vt 0.626041 0.707376
vt 0.680671 0.707376
vt 0.934424 0.922424
vt 0.899950 0.922129
vt 0.899950 0.519343
vt 0.934424 0.519638
vt 0.934424 0.519638
vt 0.968899 0.519342
vt 0.968899 0.922128
vt 0.934424 0.922424
vt 0.746184 0.670206
vt 0.711805 0.670206
vt 0.711805 0.562394
vt 0.746184 0.562394
vt 0.868849 0.921521
vt 0.868849 0.518735
vt 1.000000 0.518735
vt 1.000000 0.921521
vt 0.680671 0.652416
vt 0.680671 0.580185
vt 0.934986 0.460252
vt 0.989644 0.461813
vt 0.879204 0.461813
vt 0.933863 0.460252
vt 0.886639 -0.000000
vt 0.958870 -0.000000
vt 0.958870 0.402763
vt 0.886639 0.402763
vt 0.475560 0.755471
vt 0.499187 0.755417
vt 0.515894 0.772124
vt 0.515894 0.795806
vt 0.499187 0.812591
vt 0.475560 0.812646
vt 0.458853 0.795938
vt 0.458853 0.772256
vt 0.380160 0.785263
vt 0.380160 0.761580
vt 0.396874 0.744799
vt 0.420511 0.744752
vt 0.437224 0.761466
vt 0.437224 0.785150
vt 0.420511 0.801930
vt 0.396874 0.801977
vt 0.457057 0.810365
vt 0.437224 0.810367
vt 0.437398 0.788536
vt 0.457230 0.788534
vt 0.755087 0.743068
vt 0.735314 0.743068
vt 0.736039 0.721178
vt 0.755812 0.721178
vt 0.437398 0.766583
vt 0.457230 0.766585
vt 0.457057 0.788534
vt 0.437224 0.788532
vt 0.380282 0.823867
vt 0.400116 0.823868
vt 0.399994 0.845758
vt 0.380160 0.845758
vt 0.380160 0.801977
vt 0.399994 0.801977
vt 0.457230 0.832313
vt 0.437398 0.832316
vt 0.755812 0.764958
vt 0.736039 0.764958
vt 0.437224 0.744752
vt 0.457057 0.744755
vt 0.868849 0.460252
vt 0.976661 0.460252
vt 0.761037 0.923246
vt 0.761037 0.521419
vt 0.868849 0.521419
vt 0.868849 0.923246
vt 0.761037 0.462134
vt 0.868849 0.462134
s 1
usemtl Material
f 19/1/1 3/2/1 4/3/1 17/4/1
f 3/5/2 7/6/2 8/7/2 4/8/2
f 11/9/3 5/10/3 6/11/4 12/12/5
f 5/13/6 1/14/6 2/15/7 6/16/7
f 9/17/8 1/18/9 5/19/9 11/20/8
f 12/21/10 16/22/10 15/23/10 10/24/10
f 20/25/11 12/26/12 10/27/12 17/28/11
f 19/29/13 9/17/8 11/20/8 18/30/13
f 18/31/3 11/9/3 12/12/5 20/32/3
f 1/33/1 9/34/1 10/35/14 2/36/15
f 16/37/16 14/38/16 13/39/16 15/40/16
f 6/11/4 14/41/17 16/42/17 12/12/5
f 10/35/14 15/43/18 13/44/18 2/36/15
f 2/15/7 13/45/19 14/46/19 6/16/7
f 7/47/3 18/31/3 20/32/3 8/48/3
f 3/49/20 19/29/13 18/30/13 7/50/20
f 8/51/21 20/25/11 17/28/11 4/52/21
f 9/34/1 19/1/1 17/4/1 10/35/14
f 29/53/3 22/54/3 24/55/3 30/56/3
f 30/57/22 24/58/23 28/59/23 31/60/22
f 31/61/1 28/62/1 26/63/1 32/64/1
f 32/65/24 26/66/24 22/67/24 29/68/24
f 27/69/1 25/70/1 35/71/1 36/72/1
f 28/73/25 24/51/25 22/74/25 26/75/25
f 25/76/26 32/65/26 29/68/26 21/77/26
f 27/69/1 31/61/1 32/64/1 25/70/1
f 23/78/27 30/57/22 31/60/22 27/79/27
f 21/80/3 29/53/3 30/56/3 23/81/3
f 34/82/28 36/83/28 35/84/29 33/85/29
f 25/86/30 21/87/30 33/88/30 35/89/30
f 23/90/31 27/91/31 36/83/28 34/82/28
f 21/80/3 23/81/3 34/92/3 33/93/3
f 46/94/32 40/95/33 44/96/33 47/97/32
f 48/98/34 42/99/35 38/100/35 45/101/34
f 41/59/36 48/98/34 45/101/34 37/102/36
f 39/103/37 46/94/32 47/97/32 43/104/37
f 42/105/38 59/106/39 84/107/40 77/108/41
f 52/109/42 44/110/43 70/111/1 72/112/1
f 56/113/44 65/114/3 66/115/45 55/116/46
f 65/117/47 67/118/48 68/119/49 66/120/49
f 64/121/50 53/122/51 54/123/52 63/124/53
f 62/125/54 57/126/55 58/127/56 61/128/57
f 60/129/58 68/130/59 67/131/1 59/106/39
f 57/132/60 54/133/60 53/134/60 58/135/60
f 59/106/39 62/125/54 61/128/57 60/129/58
f 55/116/46 64/121/50 63/124/53 56/113/44
f 37/136/61 45/137/62 63/124/53 54/123/52
f 39/138/60 43/139/60 58/135/60 53/134/60
f 53/122/51 64/121/50 46/140/63 39/141/64
f 54/133/60 57/132/60 41/142/60 37/143/60
f 40/144/65 55/116/46 66/115/45 50/145/66
f 45/137/62 38/146/67 56/113/44 63/124/53
f 64/121/50 55/116/46 40/144/65 46/140/63
f 38/147/68 42/148/68 77/149/69 78/150/69
f 43/151/70 47/152/71 61/128/57 58/127/56
f 57/126/55 62/125/54 48/153/72 41/154/73
f 49/155/74 65/117/47 82/156/75 80/157/76
f 47/152/71 44/110/43 60/129/58 61/128/57
f 62/125/54 59/106/39 42/105/77 48/153/72
f 60/129/58 44/110/43 52/109/42 68/130/59
f 66/158/78 68/159/78 76/160/78 75/161/78
f 67/118/48 65/117/47 49/155/74 51/162/79
f 70/163/80 69/164/80 71/165/81 72/166/81
f 44/167/82 40/168/82 69/164/80 70/163/80
f 50/169/83 52/170/83 72/171/84 71/172/84
f 40/144/65 50/145/66 71/173/3 69/174/3
f 74/175/85 73/176/85 75/168/85 76/177/85
f 68/130/59 52/109/42 74/178/86 76/179/86
f 50/145/66 66/115/45 75/180/87 73/181/87
f 52/170/83 50/169/83 73/182/88 74/183/88
f 80/157/76 82/156/75 90/184/89 88/185/90
f 83/186/91 79/187/92 87/188/93 91/189/94
f 78/150/69 77/149/69 85/190/29 86/191/29
f 65/114/3 56/113/44 81/192/95 82/193/3
f 56/113/44 38/146/96 78/194/97 81/192/95
f 51/162/79 49/155/74 80/157/76 79/187/92
f 59/106/39 67/131/1 83/195/1 84/107/40
f 67/118/48 51/162/79 79/187/92 83/186/91
f 86/196/98 85/197/98 87/198/98 88/199/98
f 89/200/98 86/196/98 88/199/98 90/201/98
f 85/197/98 92/202/98 91/203/98 87/198/98
f 84/107/40 83/195/1 91/204/1 92/205/99
f 79/187/92 80/157/76 88/185/90 87/188/93
f 77/108/41 84/107/40 92/205/99 85/206/100
f 81/192/95 78/194/97 86/207/101 89/208/102
f 82/193/3 81/192/95 89/208/102 90/209/3
f 85/197/98 92/202/98 89/200/98 86/196/98
f 94/210/103 97/211/103 98/212/103 96/213/103
f 99/214/3 103/215/104 101/216/105 93/217/3
f 95/218/1 102/219/106 104/220/107 100/221/1
f 100/222/98 104/223/98 103/224/98 99/225/98
f 103/215/104 107/226/108 105/227/109 101/216/105
f 102/219/106 106/228/110 108/229/111 104/220/107
f 104/223/98 108/230/98 107/231/98 103/224/98
f 95/218/1 96/232/1 98/233/1 102/219/106
f 93/217/3 101/216/105 97/234/3 94/235/3
f 107/236/112 108/237/112 106/238/113 105/239/113
f 98/233/114 106/228/110 102/219/106
f 97/234/115 101/216/105 105/227/109
f 110/240/116 111/241/116 112/242/116 113/243/116 114/244/116 115/245/116 116/246/116 109/247/116
f 117/248/98 118/249/98 124/250/98 123/251/98 122/252/98 121/253/98 120/254/98 119/255/98
f 115/256/117 123/257/117 124/258/117 116/259/117
f 113/260/118 121/261/118 122/262/118 114/263/118
f 111/264/119 119/265/119 120/266/119 112/267/119
f 109/268/120 118/269/120 117/270/120 110/271/120
f 116/272/121 124/273/121 118/269/121 109/268/121
f 114/274/122 122/275/122 123/257/122 115/256/122
f 112/276/123 120/277/123 121/261/123 113/260/123
f 110/278/124 117/279/124 119/265/124 111/264/124
f 97/280/125 105/239/113 106/238/113 98/281/125
f 99/282/126 93/283/127 95/284/127 100/285/126
f 94/286/128 96/287/128 95/284/127 93/283/127
